<?xml version="1.0" standalone="no"?>
<!DOCTYPE svg PUBLIC "-//W3C//DTD SVG 20010904//EN"
 "http://www.w3.org/TR/2001/REC-SVG-20010904/DTD/svg10.dtd">
<svg version="1.0" xmlns="http://www.w3.org/2000/svg"
 width="1080.000000pt" height="840.000000pt" viewBox="0 0 1080.000000 840.000000"
 preserveAspectRatio="xMidYMid meet">

<g transform="translate(0.000000,840.000000) scale(0.100000,-0.100000)"
fill="#000000" stroke="none">
<path d="M0 4200 l0 -4200 5400 0 5400 0 0 4200 0 4200 -5400 0 -5400 0 0
-4200z m5160 3246 c0 -2 -7 -6 -15 -10 -8 -3 -15 -1 -15 4 0 6 7 10 15 10 8 0
15 -2 15 -4z m340 -55 l0 -59 -82 -31 c-46 -16 -125 -46 -176 -66 -51 -19 -97
-35 -102 -35 -6 0 -10 27 -10 60 0 70 -13 61 175 125 77 26 144 51 150 56 5 5
17 9 27 9 15 0 18 -9 18 -59z m0 -234 l0 -63 -97 -36 c-54 -20 -134 -50 -178
-67 -44 -17 -83 -31 -87 -31 -5 0 -8 28 -8 63 l0 63 124 43 c68 23 151 53 183
66 32 13 59 24 61 24 1 1 2 -27 2 -62z m0 -239 l0 -63 -83 -28 c-45 -16 -95
-35 -112 -42 -31 -15 -165 -65 -171 -65 -2 0 -4 29 -4 64 l0 64 93 32 c50 18
133 47 182 65 50 19 91 34 93 34 1 1 2 -27 2 -61z m-2600 18 c0 -2 -7 -7 -16
-10 -8 -3 -12 -2 -9 4 6 10 25 14 25 6z m250 -38 l0 -43 -73 -26 c-39 -15
-102 -38 -138 -52 l-66 -26 0 48 0 48 114 38 c63 21 116 42 119 47 3 4 14 8
25 8 16 0 19 -7 19 -42z m1150 -3 c0 -25 -5 -45 -11 -45 -6 0 -62 -20 -126
-45 -63 -25 -119 -45 -124 -45 -5 0 -9 20 -9 44 l0 44 58 20 c31 11 81 28 109
37 29 9 55 21 58 26 4 5 15 9 26 9 16 0 19 -7 19 -45z m2300 2 c0 -42 0 -42
-52 -61 -29 -10 -66 -24 -83 -32 -38 -17 -115 -44 -126 -44 -5 0 -9 20 -9 44
l0 43 58 21 c31 11 82 28 112 37 30 10 59 21 65 26 22 21 35 8 35 -34z m1158
-2 l3 -40 -58 -19 c-32 -10 -71 -24 -88 -32 -16 -7 -54 -22 -82 -33 l-53 -19
0 48 0 48 113 37 c61 21 116 42 122 47 21 19 40 3 43 -37z m2 -163 l0 -47 -72
-27 c-40 -15 -103 -38 -140 -52 l-68 -26 0 48 0 48 130 43 c72 24 133 48 136
53 11 17 14 7 14 -40z m-4610 -5 c0 -43 0 -43 -52 -61 -29 -10 -66 -25 -83
-32 -36 -16 -134 -54 -139 -54 -2 0 -3 21 -3 47 l0 48 136 47 c75 25 137 47
139 47 1 1 2 -18 2 -42z m1150 -1 l0 -43 -67 -25 c-38 -14 -98 -37 -135 -51
l-68 -26 0 48 0 48 133 45 c72 26 133 47 135 47 1 1 2 -19 2 -43z m2300 0 l0
-43 -72 -28 c-40 -15 -101 -38 -135 -51 l-63 -24 0 45 c0 24 5 47 12 51 6 4
66 26 132 50 67 23 122 42 124 43 1 1 2 -19 2 -43z m-1102 -47 l-3 -61 -100
-38 c-55 -20 -137 -51 -183 -69 l-83 -31 3 67 3 66 169 58 c93 33 171 61 174
64 16 16 23 -2 20 -56z m-2348 -122 l0 -43 -140 -56 -141 -55 2 53 c1 29 5 52
8 51 8 -2 231 73 251 84 8 5 16 9 18 9 1 0 2 -19 2 -43z m1150 -1 c0 -44 -1
-45 -47 -62 -27 -10 -86 -33 -132 -51 -46 -18 -85 -33 -88 -33 -2 0 -3 21 -1
48 l3 47 123 42 c68 23 126 44 130 47 10 11 12 6 12 -38z m3460 -4 c0 -39 -3
-48 -18 -49 -10 -1 -63 -19 -117 -41 -158 -62 -147 -62 -143 -6 l3 47 135 48
c74 26 136 48 138 48 1 1 2 -21 2 -47z m-1160 -2 c0 -30 -5 -42 -17 -47 -10
-3 -68 -25 -130 -49 -62 -24 -115 -44 -118 -44 -3 0 -5 21 -3 47 l3 47 120 42
c66 23 126 42 133 43 8 1 12 -13 12 -39z m-1100 -109 l0 -59 -82 -31 c-46 -16
-125 -46 -176 -66 -51 -19 -97 -35 -102 -35 -6 0 -10 27 -10 60 0 53 3 62 23
70 28 13 329 118 340 119 4 1 7 -26 7 -58z m-2719 -28 c31 -35 31 -36 3 -10
-30 27 -28 22 27 -89 33 -64 59 -123 59 -131 0 -11 8 -13 33 -8 26 5 23 2 -19
-18 -66 -32 -120 -80 -147 -131 -30 -57 -30 -165 0 -221 41 -78 31 -76 294
-72 224 4 236 3 285 -18 44 -20 54 -21 75 -9 13 7 32 13 43 14 15 0 17 5 12
28 -16 66 -17 130 -2 194 17 72 93 236 143 309 50 71 163 199 177 199 7 0 23
-12 37 -27 23 -26 23 -27 1 -8 -18 15 -14 2 21 -66 25 -46 55 -112 68 -147 18
-45 28 -61 39 -57 8 3 -4 -11 -28 -31 -111 -94 -132 -232 -52 -342 25 -34 36
-42 63 -42 17 0 51 -9 74 -20 40 -18 44 -18 75 -2 39 19 163 30 311 26 98 -2
108 -1 101 14 -16 37 -16 140 0 203 20 80 95 237 149 309 74 101 159 191 176
187 9 -2 15 -8 14 -14 -1 -6 12 -36 31 -67 18 -30 46 -89 62 -130 22 -57 33
-74 44 -70 8 3 29 7 45 10 29 4 28 3 -4 -7 -180 -56 -260 -269 -150 -402 l28
-34 211 -1 c163 -2 218 -6 240 -17 25 -13 34 -13 77 0 26 8 63 15 82 15 28 0
32 3 26 18 -17 38 -17 147 0 212 35 133 172 359 284 465 l32 29 57 -59 c35
-37 39 -43 12 -18 l-45 42 55 -114 c54 -112 56 -114 90 -116 25 -1 17 -4 -28
-11 -35 -5 -85 -19 -110 -32 -151 -77 -199 -260 -100 -380 29 -36 31 -36 106
-36 54 0 90 -6 119 -20 39 -17 45 -18 73 -3 47 23 139 31 317 26 l162 -4 -6
78 c-7 95 10 166 68 297 42 93 143 238 218 311 l41 39 53 -54 c33 -35 37 -41
10 -16 l-42 39 43 -84 c24 -46 51 -105 61 -132 15 -40 21 -47 39 -41 12 3 1
-7 -24 -24 -60 -39 -105 -89 -124 -134 -33 -78 -13 -197 42 -254 19 -20 31
-22 177 -23 106 0 172 -5 205 -15 43 -13 55 -13 83 -1 18 7 79 15 135 17 86 2
101 5 96 18 -3 8 -8 42 -11 75 -7 77 15 165 67 269 22 44 38 81 36 83 -6 6
-103 6 -136 0 -19 -4 13 10 71 30 104 37 107 39 159 103 75 93 122 140 138
140 7 0 11 -4 8 -8 -3 -5 8 -28 24 -53 40 -59 93 -185 125 -294 30 -104 44
-274 27 -324 l-11 -31 77 -2 c42 -1 154 -3 247 -3 161 0 173 -1 218 -25 56
-28 112 -86 134 -139 20 -45 22 -136 5 -177 l-13 -31 -875 1 c-774 1 -873 -1
-867 -14 4 -8 8 -37 8 -63 0 -43 -4 -52 -37 -83 l-38 -34 -2499 0 c-1875 0
-2507 3 -2528 12 -15 6 -32 10 -36 9 -5 -1 -6 3 -2 9 3 5 1 10 -4 10 -27 0 -7
74 31 116 19 21 19 24 4 68 -33 96 -7 194 70 268 66 63 99 72 266 73 80 0 149
2 151 5 3 3 1 29 -5 59 -6 37 -6 74 2 119 13 74 87 243 141 320 49 72 172 212
185 212 5 0 26 -17 45 -37z m369 -30 l0 -48 -58 -18 c-31 -10 -75 -27 -97 -37
-22 -11 -45 -19 -52 -20 -6 0 -19 -7 -27 -16 -13 -13 -16 -13 -16 -1 0 8 -10
27 -22 43 -13 15 -16 24 -9 19 11 -6 13 -4 8 8 -5 13 17 23 116 57 67 22 129
45 137 50 8 5 16 10 18 10 1 0 2 -21 2 -47z m4610 -3 c0 -27 -3 -49 -7 -48
-11 3 -73 -19 -170 -58 -45 -19 -87 -34 -92 -34 -6 0 -11 20 -11 44 l0 44 63
22 c46 16 191 70 215 79 1 1 2 -21 2 -49z m-3460 -2 l0 -43 -58 -19 c-31 -10
-70 -24 -87 -32 -30 -14 -114 -44 -122 -44 -2 0 -3 21 -1 46 l3 47 120 42 c66
23 126 43 133 44 8 1 12 -13 12 -41z m2300 2 c0 -32 -4 -42 -22 -50 -64 -27
-233 -90 -240 -90 -4 0 -8 20 -8 44 0 43 1 45 43 60 84 30 212 74 220 75 4 1
7 -17 7 -39z m1410 -15 c19 -19 32 -35 29 -35 -3 0 -20 16 -39 35 -19 19 -32
35 -29 35 3 0 20 -16 39 -35z m-3124 -7 l29 -33 -32 29 c-31 28 -38 36 -30 36
2 0 16 -15 33 -32z m-1020 -10 l29 -33 -32 29 c-31 28 -38 36 -30 36 2 0 16
-15 33 -32z m-1021 -8 c10 -11 16 -20 13 -20 -3 0 -13 9 -23 20 -10 11 -16 20
-13 20 3 0 13 -9 23 -20z m4156 -52 c31 -43 17 -34 -21 15 -19 23 -26 36 -17
28 10 -8 27 -27 38 -43z m-1046 22 c10 -11 16 -20 13 -20 -3 0 -13 9 -23 20
-10 11 -16 20 -13 20 3 0 13 -9 23 -20z m-1020 -10 c10 -11 16 -20 13 -20 -3
0 -13 9 -23 20 -10 11 -16 20 -13 20 3 0 13 -9 23 -20z m3145 -20 c30 -43 18
-37 -16 7 -15 20 -23 33 -16 29 6 -3 21 -20 32 -36z m-4169 13 c13 -16 12 -17
-3 -4 -10 7 -18 15 -18 17 0 8 8 3 21 -13z m2080 -30 c13 -16 12 -17 -3 -4
-10 7 -18 15 -18 17 0 8 8 3 21 -13z m-2050 -10 c13 -16 12 -17 -3 -4 -10 7
-18 15 -18 17 0 8 8 3 21 -13z m1052 -32 c27 -46 14 -38 -18 12 -16 23 -22 37
-14 30 8 -6 22 -25 32 -42z m504 -36 c-3 -7 -18 -15 -34 -18 -15 -3 -48 -20
-72 -39 -75 -57 -83 -60 -106 -39 -11 11 -37 30 -58 44 l-37 25 92 31 c51 17
120 41 153 54 l60 23 3 -34 c2 -19 1 -40 -1 -47z m-2347 21 c0 -53 -12 -59
-80 -39 -25 8 -58 13 -75 12 -16 0 -34 0 -40 0 -9 2 166 66 188 70 4 0 7 -19
7 -43z m1150 1 c0 -40 -2 -44 -35 -55 -29 -11 -39 -10 -64 3 -17 8 -43 15 -59
15 -56 0 -41 14 50 46 51 17 96 32 101 33 4 0 7 -18 7 -42z m2300 -3 c0 -40
-2 -45 -17 -39 -39 15 -118 22 -155 13 -75 -16 -50 -1 54 34 57 19 106 36 111
36 4 1 7 -19 7 -44z m470 -21 c0 -7 -8 -13 -17 -13 -14 0 -15 2 -4 9 11 7 10
15 -8 42 l-23 34 26 -30 c14 -16 26 -36 26 -42z m1060 26 c15 -28 5 -23 -15 7
-9 15 -12 23 -6 20 6 -4 16 -16 21 -27z m-4140 -35 c0 -8 -4 -14 -8 -14 -4 0
-8 9 -8 19 0 11 4 17 8 15 4 -3 8 -12 8 -20z m4220 -142 c-1 -13 -69 123 -70
138 0 8 16 -18 35 -59 19 -40 35 -76 35 -79z m-1850 128 c-8 -5 -19 -10 -25
-10 -5 0 -3 5 5 10 8 5 20 10 25 10 6 0 3 -5 -5 -10z m1150 0 c-8 -5 -19 -10
-25 -10 -5 0 -3 5 5 10 8 5 20 10 25 10 6 0 3 -5 -5 -10z m727 -232 c-3 -8 -6
-5 -6 6 -1 11 2 17 5 13 3 -3 4 -12 1 -19z m10 -110 c-2 -18 -4 -6 -4 27 0 33
2 48 4 33 2 -15 2 -42 0 -60z m578 -468 c3 -6 -1 -7 -9 -4 -18 7 -21 14 -7 14
6 0 13 -4 16 -10z m36 -27 c13 -16 12 -17 -3 -4 -10 7 -18 15 -18 17 0 8 8 3
21 -13z m26 -105 c-2 -13 -4 -3 -4 22 0 25 2 35 4 23 2 -13 2 -33 0 -45z
m-6962 -58 c10 -11 16 -20 13 -20 -3 0 -13 9 -23 20 -10 11 -16 20 -13 20 3 0
13 -9 23 -20z m325 -97 c0 -64 5 -75 38 -92 28 -15 61 -6 84 23 17 20 18 18
18 -69 0 -102 11 -128 66 -151 38 -16 79 -10 114 16 24 18 25 24 30 172 l5
153 643 3 c629 2 642 2 642 -17 0 -11 12 -29 26 -40 49 -38 124 -20 144 35 8
19 17 24 45 24 20 0 43 -7 52 -15 16 -16 78 -12 97 6 6 5 159 9 340 9 l330 0
21 -23 c11 -12 17 -18 13 -13 -5 6 -8 14 -8 18 0 4 99 8 220 8 183 0 220 -2
220 -14 0 -8 -6 -17 -12 -19 -10 -4 -10 -6 0 -6 7 -1 17 10 22 24 l10 25 215
0 c198 0 215 -1 215 -17 0 -15 2 -15 9 -4 5 8 32 16 65 19 l56 4 0 -111 c0
-130 13 -171 62 -201 40 -24 116 -27 158 -5 59 31 70 60 70 194 l0 121 409 0
409 0 20 -34 c37 -63 124 -57 154 10 l11 24 209 0 208 0 0 -29 c0 -39 23 -57
55 -43 l25 12 0 -91 c0 -82 2 -92 25 -114 30 -30 54 -31 89 -4 26 20 26 23 26
142 l0 122 130 2 130 2 0 -110 c0 -153 15 -185 103 -210 44 -12 101 6 131 42
24 29 26 37 26 135 0 96 10 131 25 85 8 -25 55 -44 89 -35 30 7 66 48 66 75 0
17 9 19 98 18 53 -1 87 -4 75 -6 l-23 -4 0 -225 0 -225 -307 1 c-170 1 -559 1
-866 1 -548 -1 -558 -1 -547 -20 25 -48 0 -119 -53 -151 -32 -20 -70 -20
-2525 -20 -2166 0 -2497 2 -2521 15 -16 8 -31 12 -35 10 -3 -3 -4 -2 -1 2 3 3
0 12 -6 19 -19 23 -1 78 36 114 28 28 44 34 90 38 l55 4 0 219 0 218 -37 4
c-21 2 19 4 90 5 l127 2 0 -57z m6547 -399 c-3 -3 -12 -4 -19 -1 -8 3 -5 6 6
6 11 1 17 -2 13 -5z m86 -165 c-5 -5 -6 11 -3 34 4 41 5 41 8 8 2 -18 0 -37
-5 -42z m-6948 -49 c10 -11 16 -20 13 -20 -3 0 -13 9 -23 20 -10 11 -16 20
-13 20 3 0 13 -9 23 -20z m468 -27 c-13 -2 -33 -2 -45 0 -13 2 -3 4 22 4 25 0
35 -2 23 -4z m295 0 c-10 -2 -28 -2 -40 0 -13 2 -5 4 17 4 22 1 32 -1 23 -4z
m405 0 c-13 -2 -35 -2 -50 0 -16 2 -5 4 22 4 28 0 40 -2 28 -4z m680 0 c-7 -2
-21 -2 -30 0 -10 3 -4 5 12 5 17 0 24 -2 18 -5z m1860 0 c-7 -2 -21 -2 -30 0
-10 3 -4 5 12 5 17 0 24 -2 18 -5z m2080 0 c-7 -2 -21 -2 -30 0 -10 3 -4 5 12
5 17 0 24 -2 18 -5z m-5680 -10 c-7 -2 -19 -2 -25 0 -7 3 -2 5 12 5 14 0 19
-2 13 -5z m-253 -160 c53 -56 53 -56 6 -13 l-48 45 31 -50 c76 -126 151 -369
151 -492 0 -34 4 -53 12 -53 6 0 9 -3 6 -6 -3 -3 -104 -7 -224 -10 -206 -5
-271 -13 -302 -37 -19 -15 -24 -3 -24 62 0 162 89 344 265 544 32 37 62 67 66
67 4 0 31 -26 61 -57z m310 27 l0 -30 278 0 c289 0 302 2 302 42 0 17 51 18
1273 18 856 -1 1266 -4 1255 -11 -21 -11 -24 -49 -6 -67 17 -17 48 -15 70 5
22 20 23 31 1 55 -16 18 17 18 1095 18 706 -1 1112 -4 1112 -10 0 -6 7 -10 15
-10 8 0 15 5 15 10 0 6 33 10 80 10 l80 0 0 -146 c0 -130 -2 -145 -16 -140 -9
3 -27 9 -40 12 -14 4 -29 15 -35 25 -15 29 -65 25 -85 -6 -9 -14 -20 -25 -24
-25 -5 0 -21 -5 -37 -12 -15 -6 -38 -10 -50 -9 -17 2 -26 -5 -35 -26 -7 -15
-20 -38 -29 -51 -18 -23 -18 -23 -29 -3 -13 25 -89 78 -135 94 -24 9 -47 31
-83 83 -28 39 -73 95 -100 125 l-50 54 57 -117 c55 -115 57 -117 91 -118 25
-1 16 -5 -36 -15 -38 -7 -84 -20 -102 -29 -116 -60 -176 -187 -143 -302 9 -30
7 -32 -41 -52 -48 -20 -49 -20 -91 -2 -23 11 -52 20 -64 20 -21 0 -23 5 -23
46 0 81 15 126 108 318 3 5 -30 7 -74 4 -91 -5 -130 -22 -191 -81 l-43 -41
-37 36 c-60 59 -124 83 -216 82 -43 0 -73 2 -67 6 11 7 -72 124 -149 210 l-40
45 53 -105 c29 -58 58 -120 64 -138 10 -29 15 -32 34 -27 13 4 -4 -10 -37 -32
-100 -65 -148 -167 -126 -264 6 -24 11 -47 11 -51 0 -3 -78 -6 -172 -5 l-173
2 4 55 c4 64 33 165 67 232 l23 46 -40 16 c-51 21 -142 20 -204 0 -29 -10 -67
-35 -96 -63 l-48 -46 -44 41 c-24 24 -66 50 -95 60 -29 10 -52 21 -52 25 0 7
-89 -6 -148 -22 -57 -16 -144 -95 -167 -152 -22 -54 -22 -144 0 -187 22 -43 8
-55 -36 -33 -19 10 -68 20 -114 23 l-80 5 3 55 c4 75 26 148 72 236 l39 74
-49 0 c-27 0 -60 -4 -74 -10 -21 -7 -26 -6 -26 5 0 18 -34 37 -54 29 -21 -8
-28 -35 -14 -53 11 -14 7 -22 -29 -57 -43 -42 -47 -43 -44 -14 2 26 -37 60
-70 60 -16 0 -44 8 -62 17 -42 22 -168 23 -219 1 -52 -23 -128 -95 -149 -143
-21 -44 -26 -154 -9 -185 10 -18 4 -19 -156 -19 -91 -1 -170 -3 -175 -6 -15
-10 -10 107 6 163 9 29 36 94 60 144 25 50 45 100 45 109 0 24 -38 59 -64 59
-24 0 -66 -37 -66 -58 0 -9 7 -23 16 -33 15 -17 13 -19 -34 -43 -27 -14 -62
-40 -78 -58 l-29 -33 -36 36 c-71 71 -185 101 -288 75 -21 -5 -31 -5 -27 2 8
13 -82 138 -150 209 -31 32 -50 49 -42 38 21 -27 63 -111 103 -206 l32 -77
-38 -38 c-54 -53 -79 -111 -78 -181 0 -32 4 -67 8 -78 7 -17 1 -23 -38 -41
-43 -20 -48 -20 -76 -5 -21 10 -67 16 -147 19 l-118 4 0 47 c0 67 24 150 67
233 21 40 39 76 41 81 7 14 -114 7 -163 -9 -29 -10 -67 -35 -96 -63 l-47 -46
-36 36 c-20 20 -56 46 -81 58 l-45 21 0 140 c0 118 2 140 15 140 10 0 15 -10
15 -30z m5893 -78 c24 -48 52 -109 62 -135 13 -34 22 -46 32 -42 8 3 27 7 41
10 25 5 25 4 -3 -7 -89 -38 -163 -107 -185 -172 -13 -39 -10 -145 5 -180 6
-14 5 -17 -3 -12 -7 4 -86 7 -177 7 l-165 -1 0 43 c0 141 104 349 267 533 43
49 59 61 69 53 7 -6 33 -50 57 -97z m1067 51 c53 -56 53 -56 6 -13 l-48 45 31
-50 c76 -126 150 -367 151 -487 0 -53 2 -58 22 -58 12 0 19 -3 15 -6 -3 -3
-108 -8 -234 -11 -197 -4 -234 -7 -272 -24 -35 -15 -46 -17 -53 -7 -13 21 -9
109 7 173 20 78 97 235 148 305 50 67 157 190 166 190 4 0 31 -26 61 -57z
m-7195 -83 c10 -11 16 -20 13 -20 -3 0 -13 9 -23 20 -10 11 -16 20 -13 20 3 0
13 -9 23 -20z m7270 0 c10 -11 16 -20 13 -20 -3 0 -13 9 -23 20 -10 11 -16 20
-13 20 3 0 13 -9 23 -20z m-7234 -47 c13 -16 12 -17 -3 -4 -17 13 -22 21 -14
21 2 0 10 -8 17 -17z m7270 0 c13 -16 12 -17 -3 -4 -10 7 -18 15 -18 17 0 8 8
3 21 -13z m74 -113 c9 -16 13 -30 11 -30 -3 0 -12 14 -21 30 -9 17 -13 30 -11
30 3 0 12 -13 21 -30z m-7259 -41 c14 -28 24 -53 22 -55 -2 -2 -16 21 -31 51
-15 30 -25 55 -22 55 3 0 16 -23 31 -51z m974 47 c0 -2 -7 -7 -16 -10 -8 -3
-12 -2 -9 4 6 10 25 14 25 6z m6340 -121 c0 -5 -5 -3 -10 5 -5 8 -10 20 -10
25 0 6 5 3 10 -5 5 -8 10 -19 10 -25z m-7270 -30 c0 -5 -5 -3 -10 5 -5 8 -10
20 -10 25 0 6 5 3 10 -5 5 -8 10 -19 10 -25z m7 -37 c-3 -8 -6 -5 -6 6 -1 11
2 17 5 13 3 -3 4 -12 1 -19z m7290 -40 c-3 -7 -5 -2 -5 12 0 14 2 19 5 13 2
-7 2 -19 0 -25z m-7280 0 c-3 -8 -6 -5 -6 6 -1 11 2 17 5 13 3 -3 4 -12 1 -19z
m7291 -112 c-3 -34 -3 -34 -28 -20 -23 14 -23 14 -2 9 21 -6 22 -3 24 52 1 35
3 45 5 26 2 -18 3 -48 1 -67z m-7280 -3 l-3 -28 -50 18 c-30 11 -38 16 -20 13
17 -2 38 -8 48 -11 15 -6 17 0 19 46 1 36 3 43 5 22 2 -18 3 -45 1 -60z m7219
1 c-3 -3 -12 -4 -19 -1 -8 3 -5 6 6 6 11 1 17 -2 13 -5z m-7707 -710 c0 -59 3
-68 29 -95 35 -35 77 -38 109 -9 l22 21 0 -76 c0 -43 6 -90 14 -110 27 -65
112 -93 176 -60 56 29 60 44 61 230 1 125 3 161 10 137 13 -42 63 -75 104 -67
32 5 85 56 85 80 0 21 49 19 73 -2 24 -23 90 -23 114 0 18 16 74 17 781 17
653 0 762 -2 762 -14 0 -24 50 -56 87 -56 33 0 83 36 83 60 0 6 51 10 145 10
l145 0 0 -121 c0 -139 11 -168 72 -200 46 -23 79 -24 125 -2 58 27 73 63 73
173 1 77 3 92 13 79 49 -64 148 -42 163 36 l6 35 734 0 734 0 0 -55 c0 -46 4
-60 25 -80 30 -30 54 -31 89 -4 23 18 26 28 26 80 l0 59 285 0 285 0 0 -33 c0
-18 5 -38 12 -45 14 -14 50 -16 63 -3 6 6 11 -26 13 -87 2 -84 5 -99 23 -114
28 -24 74 -23 99 2 21 21 26 74 21 212 l-3 67 270 0 270 0 3 -85 c4 -79 6 -88
32 -110 41 -35 99 -33 138 5 27 28 29 34 29 110 l0 81 356 0 356 0 -3 -172 -2
-172 34 -39 c42 -49 103 -60 158 -29 52 28 71 72 71 165 l0 78 22 -15 c32 -23
62 -20 97 10 30 25 31 29 31 100 l0 75 138 -3 137 -3 3 -227 2 -228 -812 0
c-983 0 -3171 -11 -3177 -16 -2 -2 312 -4 698 -4 l701 0 11 -27 c16 -41 -7
-101 -50 -130 l-34 -23 -2696 0 c-2670 0 -2696 0 -2728 20 -25 15 -33 27 -33
48 0 35 37 93 68 107 12 5 22 12 22 15 0 3 33 3 73 -1 39 -4 452 -7 917 -6
l845 2 -860 5 -860 5 -3 220 c-1 121 0 225 2 232 4 8 25 13 61 13 l55 0 0 -66z
m8840 -2691 l0 -123 -5010 0 -5010 0 0 123 0 122 5010 0 5010 0 0 -122z"/>
<path d="M6389 5061 c-25 -26 -29 -37 -29 -86 0 -49 4 -60 29 -86 69 -68 181
-15 181 86 0 101 -112 154 -181 86z"/>
<path d="M3915 4985 c-19 -18 -25 -35 -25 -70 0 -35 6 -52 25 -70 30 -31 82
-33 119 -4 22 17 26 28 26 73 0 42 -5 57 -23 74 -33 31 -90 30 -122 -3z"/>
<path d="M5882 4772 c-18 -2 -30 -8 -27 -13 8 -12 52 -11 60 2 9 14 6 15 -33
11z"/>
<path d="M2693 4275 c-3 -9 -3 -19 1 -22 7 -7 36 16 36 28 0 15 -30 10 -37 -6z"/>
<path d="M3828 4247 c16 -26 47 -87 67 -135 21 -48 38 -88 40 -90 3 -4 65 20
65 26 0 11 -138 187 -170 217 l-32 30 30 -48z"/>
<path d="M4856 4250 c15 -25 42 -79 60 -120 31 -72 34 -75 68 -78 20 -2 36 0
36 4 0 13 -88 129 -139 184 l-52 55 27 -45z"/>
<path d="M4130 4251 c-19 -36 14 -70 53 -55 22 8 31 42 17 59 -18 21 -57 18
-70 -4z"/>
<path d="M2294 4225 c-4 -9 -2 -21 4 -27 15 -15 44 -1 40 19 -4 23 -36 29 -44
8z"/>
<path d="M6132 4184 c-12 -8 -22 -26 -22 -39 0 -49 27 -55 240 -55 213 0 240
6 240 55 0 49 -27 55 -240 55 -161 0 -199 -3 -218 -16z"/>
<path d="M3135 4180 c-4 -6 -3 -16 3 -22 6 -6 12 -6 17 2 4 6 3 16 -3 22 -6 6
-12 6 -17 -2z"/>
<path d="M2615 4169 c-11 -17 1 -21 15 -4 8 9 8 15 2 15 -6 0 -14 -5 -17 -11z"/>
<path d="M4004 4165 c-4 -9 0 -23 8 -31 20 -20 50 -7 46 20 -4 26 -45 35 -54
11z"/>
<path d="M4413 4134 c-8 -21 13 -42 28 -27 13 13 5 43 -11 43 -6 0 -13 -7 -17
-16z"/>
<path d="M7322 4108 c-16 -16 -15 -33 2 -47 30 -25 67 16 40 44 -19 18 -26 19
-42 3z"/>
<path d="M4370 4085 c0 -8 7 -15 15 -15 8 0 15 7 15 15 0 8 -7 15 -15 15 -8 0
-15 -7 -15 -15z"/>
<path d="M5627 4075 c-9 -22 8 -26 21 -4 10 15 10 19 -2 19 -8 0 -16 -7 -19
-15z"/>
<path d="M6021 2954 c0 -11 3 -14 6 -6 3 7 2 16 -1 19 -3 4 -6 -2 -5 -13z"/>
<path d="M7382 2928 c5 -15 57 -18 61 -3 1 6 -13 11 -32 13 -24 3 -32 0 -29
-10z"/>
<path d="M6477 2923 c-10 -10 -8 -33 3 -33 5 0 7 7 4 15 -5 12 14 15 123 18
l128 3 -126 2 c-69 1 -129 -1 -132 -5z"/>
<path d="M6822 2923 c37 -2 100 -2 140 0 40 1 10 3 -67 3 -77 0 -110 -1 -73
-3z"/>
<path d="M7278 2923 c17 -2 47 -2 65 0 17 2 3 4 -33 4 -36 0 -50 -2 -32 -4z"/>
<path d="M7583 2923 c117 -3 128 -5 122 -21 -5 -13 -3 -14 6 -5 26 26 -3 33
-129 31 l-127 -2 128 -3z"/>
<path d="M6700 2895 c-11 -13 -5 -15 40 -15 45 0 51 2 40 15 -7 8 -25 15 -40
15 -15 0 -33 -7 -40 -15z"/>
<path d="M5335 2880 c-16 -7 -17 -9 -3 -9 9 -1 20 4 23 9 7 11 7 11 -20 0z"/>
<path d="M8355 2860 c-3 -5 -1 -10 4 -10 6 0 11 5 11 10 0 6 -2 10 -4 10 -3 0
-8 -4 -11 -10z"/>
<path d="M8310 2698 c0 -3 80 -6 178 -6 203 1 187 6 -31 10 -81 2 -147 0 -147
-4z"/>
<path d="M3478 2553 c117 -2 306 -2 420 0 114 1 18 2 -213 2 -231 0 -324 -1
-207 -2z"/>
<path d="M4433 2553 c170 -2 444 -2 610 0 166 1 28 2 -308 2 -335 0 -471 -1
-302 -2z"/>
</g>
</svg>
